<svg width="16" height="16" viewBox="0 0 16 16" fill="none" xmlns="http://www.w3.org/2000/svg">
<path d="M1.3855 7C0.833213 7 0.385498 7.44772 0.385498 8C0.385498 8.55228 0.833213 9 1.3855 9V7ZM15.3223 8.70711C15.7129 8.31658 15.7129 7.68342 15.3223 7.29289L8.95838 0.928932C8.56786 0.538408 7.93469 0.538408 7.54417 0.928932C7.15364 1.31946 7.15364 1.95262 7.54417 2.34315L13.201 8L7.54417 13.6569C7.15364 14.0474 7.15364 14.6805 7.54417 15.0711C7.93469 15.4616 8.56786 15.4616 8.95838 15.0711L15.3223 8.70711ZM1.3855 9L14.6152 9V7L1.3855 7V9Z" fill="black"/>
</svg>
