<svg width="16" height="16" viewBox="0 0 16 16" fill="none" xmlns="http://www.w3.org/2000/svg">
<g clip-path="url(#clip0_153_456)">
<path d="M5.87717 7.12133C6.46593 8.22032 7.32251 9.13044 8.35685 9.756L8.91152 8.93067C9.00072 8.79796 9.1326 8.70459 9.28222 8.66822C9.43184 8.63186 9.58881 8.65502 9.72344 8.73333C10.6109 9.24862 11.5909 9.55852 12.5991 9.64267C12.7564 9.65592 12.9033 9.73169 13.0104 9.85488C13.1175 9.97807 13.177 10.1396 13.1769 10.3073V13.282C13.177 13.4471 13.1194 13.6063 13.0153 13.7288C12.9112 13.8513 12.768 13.9285 12.6135 13.9453C12.2809 13.982 11.9459 14 11.6083 14C6.23732 14 1.88281 9.37333 1.88281 3.66667C1.88281 3.308 1.89975 2.952 1.93426 2.59867C1.95011 2.43446 2.02272 2.28235 2.13805 2.17176C2.25338 2.06116 2.40322 1.99996 2.55858 2H5.35826C5.51611 1.99998 5.66816 2.06317 5.7841 2.17697C5.90005 2.29077 5.97136 2.44682 5.98383 2.614C6.06303 3.68519 6.3547 4.72645 6.83968 5.66933C6.91338 5.81238 6.93518 5.97916 6.90096 6.13813C6.86673 6.2971 6.77885 6.43723 6.65395 6.532L5.87717 7.12133ZM4.29473 6.68333L5.48689 5.77867C5.14856 5.00273 4.91676 4.17923 4.79858 3.33333H3.14399C3.14022 3.444 3.13834 3.55533 3.13834 3.66667C3.13771 8.63733 6.93003 12.6667 11.6083 12.6667C11.7131 12.6667 11.8179 12.6647 11.922 12.66V10.902C11.1259 10.7764 10.3508 10.5301 9.62054 10.1707L8.76909 11.4373C8.42629 11.2958 8.09333 11.1287 7.7727 10.9373L7.7363 10.9153C6.50561 10.1711 5.48644 9.08828 4.78603 7.78067L4.76532 7.742C4.58519 7.40133 4.42793 7.04756 4.29473 6.68333Z" fill="white"/>
</g>
<defs>
<clipPath id="clip0_153_456">
<rect width="15.0588" height="16" fill="white"/>
</clipPath>
</defs>
</svg>
