<svg width="26" height="26" viewBox="0 0 26 26" fill="none" xmlns="http://www.w3.org/2000/svg">
<path fill-rule="evenodd" clip-rule="evenodd" d="M12.5455 25.5455C19.4741 25.5455 25.0909 19.9287 25.0909 13C25.0909 6.07138 19.4741 0.45459 12.5455 0.45459C5.61679 0.45459 0 6.07138 0 13C0 19.9287 5.61679 25.5455 12.5455 25.5455ZM18.353 9.04445C18.9322 8.97561 19.4979 8.82064 20.0313 8.58468L20.032 8.58538C19.6398 9.17233 19.1459 9.68461 18.5738 10.0981C18.5794 10.2225 18.5829 10.3497 18.5829 10.4755C18.5829 14.3374 15.6433 18.7904 10.2679 18.7904C8.67979 18.7919 7.12483 18.3358 5.78906 17.4768C6.55426 17.5692 7.33018 17.5099 8.07244 17.3022C8.8147 17.0945 9.50875 16.7426 10.1149 16.2666C9.50501 16.2552 8.91392 16.0535 8.4244 15.6895C7.93488 15.3255 7.57144 14.8175 7.38497 14.2367C7.82329 14.3203 8.27489 14.3031 8.70557 14.1864C8.04421 14.0526 7.44948 13.6942 7.02222 13.1719C6.59496 12.6496 6.36146 11.9957 6.36132 11.3209V11.2846C6.76703 11.5101 7.22077 11.6354 7.68473 11.65C6.90075 11.126 6.38508 10.2309 6.38508 9.21774C6.38435 8.70153 6.52084 8.19441 6.78056 7.7483C7.51432 8.6511 8.42974 9.38949 9.46739 9.91553C10.505 10.4416 11.6417 10.7435 12.8036 10.8018C12.656 10.1748 12.7197 9.51672 12.9847 8.92971C13.2497 8.3427 13.7012 7.85969 14.2691 7.55577C14.8369 7.25184 15.4893 7.14404 16.1247 7.24911C16.7601 7.35419 17.343 7.66625 17.7828 8.1368C18.4375 8.00753 19.0657 7.76856 19.6387 7.42758C19.4204 8.10466 18.9635 8.67931 18.353 9.04445Z" fill="white"/>
</svg>
